
        <svg xmlns="http://www.w3.org/2000/svg" xmlns:xlink="http://www.w3.org/1999/xlink" version="1.1" width="3162.0591039084848" 
        height="739.8940173468795" viewBox="0 0 3162.0591039084848 739.8940173468795">
			
			<g transform="scale(8.102955195424215) translate(10, 10)">
				<defs id="SvgjsDefs1188"></defs><g id="SvgjsG1189" featureKey="symbolFeature-0" transform="matrix(20.014488445016774,0,0,20.014488445016774,-19.153866978408992,-14.370402598541874)" fill="#fab339"><g xmlns="http://www.w3.org/2000/svg"><path fill="#fab339" d="M2.501,4.281l-1.543-0.89L0.957,1.61l1.542-0.892l1.543,0.891l0.001,1.78L2.501,4.281z M1.408,3.132   l1.093,0.63L3.593,3.13L3.592,1.869L2.499,1.238L1.407,1.87L1.408,3.132z"></path><path fill="#fab339" d="M2.5,3.433L1.693,2.967L1.692,2.034l0.807-0.466l0.809,0.466v0.932L2.5,3.433z M2.143,2.707L2.5,2.913   l0.357-0.207V2.294L2.5,2.088L2.143,2.294V2.707z"></path></g></g><g id="SvgjsG1190" featureKey="nameFeature-0" transform="matrix(2.0150676516991846,0,0,2.0150676516991846,79.58191824144549,-16.294180977480345)" fill="#ffffff"><path d="M4.96 27.32 l0 -4.72 c0 -1.48 -0.08 -6.36 -0.12 -7 c-0.12 -2.32 -0.76 -2.4 -2.08 -2.4 l-1.28 0 c-0.28 0 -0.28 -0.04 -0.28 -0.36 l0 -0.92 c0 -0.24 0.04 -0.36 0.32 -0.36 c0.52 0 2.44 0.12 6.24 0.12 c1.28 0 3.68 -0.12 6.4 -0.12 c2.88 0 5.44 0.28 6.84 1.08 c2.28 1.24 3.08 3.08 3.08 5.44 c0 2.64 -1.6 5.2 -5.84 6.6 l0 0.08 c4.96 1.28 7.56 3.68 7.56 7.92 c0 2.16 -1.2 5.12 -3.12 6.08 c-1.64 0.84 -4.44 1.48 -9.4 1.48 c-0.36 0 -1.4 -0.08 -2.52 -0.12 c-1.16 -0.08 -2.4 -0.12 -3.16 -0.12 c-2 0 -3.32 0.04 -4.2 0.04 c-0.84 0.04 -1.28 0.08 -1.56 0.08 c-0.4 0 -0.44 -0.12 -0.44 -0.44 l0 -0.88 c0 -0.24 0.04 -0.32 0.4 -0.32 l1.4 0 c1.2 0 1.4 -0.48 1.56 -1.68 c0.12 -0.92 0.2 -6.2 0.2 -9.48 z M10.8 21.2 l0 3.04 c1.64 0.16 4.2 -0.08 5.36 -1.12 c1.32 -1.16 1.92 -2.96 1.92 -4.72 c0 -1.52 -0.48 -3.12 -1.64 -4.04 c-1.36 -1.08 -3.32 -1.44 -3.76 -1.44 c-0.84 0 -1.72 0.04 -1.76 0.68 c-0.08 0.8 -0.12 4.28 -0.12 7.6 z M10.8 25.6 l0 7.92 c0 3.8 0.88 5.36 3 5.36 c2.84 0 5.52 -1.4 5.52 -6.4 c0 -3.24 -1.44 -5.36 -3.6 -6.2 c-2 -0.76 -3.92 -0.68 -4.92 -0.68 z M43.120000000000005 30.04 l-9.16 0 l0 1.08 c0 4.16 2.36 6.2 5.28 6.2 c1.96 0 3.56 -0.92 4.36 -2.2 c0.08 -0.2 0.24 -0.24 0.4 -0.12 l0.68 0.36 c0.16 0.08 0.28 0.28 -0.08 0.96 c-0.72 1.48 -3.32 4.24 -7.08 4.24 c-2.56 0 -4.68 -0.44 -6 -1.88 c-2.04 -2.2 -2.72 -3.76 -2.76 -6.88 c0 -1.12 0 -3.24 1.8 -5.88 c1.44 -2.12 3.88 -3.28 6.96 -3.28 c6.48 0 6.84 6.2 6.84 6.84 c0 0.52 -0.36 0.56 -1.24 0.56 z M34 28.52 l3.84 0 c0.88 0 1.28 -0.2 1.28 -0.8 c0 -1.76 -0.72 -3.48 -1.96 -3.48 c-1.88 0 -2.88 1.48 -3.16 4.28 z M61.160000000000004 30.04 l-9.16 0 l0 1.08 c0 4.16 2.36 6.2 5.28 6.2 c1.96 0 3.56 -0.92 4.36 -2.2 c0.08 -0.2 0.24 -0.24 0.4 -0.12 l0.68 0.36 c0.16 0.08 0.28 0.28 -0.08 0.96 c-0.72 1.48 -3.32 4.24 -7.08 4.24 c-2.56 0 -4.68 -0.44 -6 -1.88 c-2.04 -2.2 -2.72 -3.76 -2.76 -6.88 c0 -1.12 0 -3.24 1.8 -5.88 c1.44 -2.12 3.88 -3.28 6.96 -3.28 c6.48 0 6.84 6.2 6.84 6.84 c0 0.52 -0.36 0.56 -1.24 0.56 z M52.04 28.52 l3.84 0 c0.88 0 1.28 -0.2 1.28 -0.8 c0 -1.76 -0.72 -3.48 -1.96 -3.48 c-1.88 0 -2.88 1.48 -3.16 4.28 z M74.48 24.04 l0 3.44 c0 0.68 0 9.32 0.12 10.92 l2.28 0 c1.88 0 3.68 0 5.84 -0.2 s4.88 -5 5.48 -6.48 c0.12 -0.24 0.24 -0.36 0.48 -0.24 l0.8 0.32 c0.12 0.08 0.12 0.12 0.08 0.36 c-0.12 0.28 -1.72 6.88 -1.96 7.96 c-1.04 -0.08 -12.56 -0.12 -16.24 -0.12 c-3.96 0 -5.4 0.12 -5.92 0.12 c-0.28 0 -0.32 -0.08 -0.32 -0.36 l0 -1 c0 -0.2 0.04 -0.28 0.28 -0.28 l1.24 0 c1.48 0 1.72 -0.56 1.72 -1 c0 -0.76 0.12 -10.72 0.12 -13.16 l0 -2.24 c0 -2.56 -0.08 -6.8 -0.12 -7.44 c-0.08 -1.04 -0.28 -1.44 -1.2 -1.44 l-1.48 0 c-0.24 0 -0.28 -0.2 -0.28 -0.4 l0 -0.96 c0 -0.2 0.04 -0.28 0.28 -0.28 c0.44 0 1.88 0.12 5.52 0.12 c4.68 0 6.36 -0.12 6.72 -0.12 c0.32 0 0.36 0.12 0.36 0.4 l0 0.92 c0 0.2 -0.08 0.32 -0.4 0.32 l-1.88 0 c-1.24 0 -1.4 0.4 -1.4 1.48 c0 0.52 -0.12 6.56 -0.12 9.36 z M111.47999999999999 39 l-5.6 1.4 c-0.24 0.08 -0.52 0.16 -0.88 0.16 c-0.4 0 -0.64 -0.2 -0.68 -0.48 l-0.24 -2.16 l-0.24 0 c-0.8 1.4 -3.12 2.64 -5.28 2.64 c-1.6 0 -2.8 0 -4.2 -1.84 c-1.68 -2.24 -1.52 -3.52 -1.52 -6.96 l0.04 -1.76 c0 -1.52 0 -3.12 -0.04 -4 c-0.04 -0.96 -0.88 -1.32 -1.36 -1.4 c-0.68 -0.12 -0.88 -0.08 -0.88 -0.28 l0 -0.8 c0 -0.24 0.08 -0.32 0.44 -0.32 l5.84 0 c0.24 0 0.4 -0.04 0.56 -0.08 c0.16 0 0.32 -0.04 0.44 -0.04 c0.28 0 0.48 0.2 0.44 0.48 c-0.04 0.36 -0.16 2.24 -0.16 5.4 l0 2.16 c0 1.6 -0.24 4.6 0.76 6.16 c0.6 0.92 1.24 0.84 1.96 0.84 c0.68 0 1.56 -0.52 2.16 -1.28 c0.36 -0.4 0.64 -1.04 0.64 -1.44 l-0.04 -9.4 c0 -1 -0.72 -1.32 -1.72 -1.4 c-0.48 -0.04 -0.68 -0.08 -0.68 -0.28 l0 -0.76 c0 -0.32 0.08 -0.36 0.48 -0.36 l5.96 0 c0.28 0 0.48 -0.04 0.68 -0.08 c0.2 0 0.36 -0.04 0.48 -0.04 c0.24 0 0.4 0.2 0.36 0.4 c-0.04 0.36 -0.24 1.4 -0.24 5.44 l0 2.96 c0 1.92 0 3.88 0.08 4.6 c0.12 1.24 0.56 1.4 0.72 1.4 c0.24 0 0.84 0 1.32 -0.12 c0.32 -0.08 0.44 0 0.48 0.16 l0.12 0.76 c0.04 0.2 -0.04 0.28 -0.2 0.32 z M113.16 25.2 l5.16 -2.28 c0.36 -0.16 0.64 -0.28 0.92 -0.28 c0.24 0 0.48 0.12 0.56 0.52 l0.32 2.28 l0.2 0 c1.12 -1.56 3.16 -2.8 5.68 -2.8 c2.56 0 3.8 1.16 4.84 2.8 l0.2 0 c1.36 -1.6 3.32 -2.68 5.36 -2.68 c1.8 0 2.64 0.24 3.88 1.52 c1.16 1.16 1.72 1.52 1.72 5.48 l0 2.88 c0 1.36 -0.12 3.56 -0.16 4.4 c-0.04 1.12 0.52 1.56 1.16 1.56 l0.8 0 c0.36 0 0.44 0.08 0.44 0.36 l0 0.76 c0 0.28 -0.08 0.4 -0.28 0.4 c-0.28 0 -1.4 -0.12 -4.32 -0.12 c-2.4 0 -3.84 0.12 -4.12 0.12 c-0.24 0 -0.32 -0.12 -0.32 -0.48 l0 -0.68 c0 -0.28 0.12 -0.36 0.24 -0.36 l0.36 0 c0.28 0 0.76 -0.2 0.8 -0.76 c0.08 -0.92 0.2 -2.36 0.2 -3.84 l0 -3.84 c0 -2.48 -0.12 -3.32 -0.64 -3.88 c-0.64 -0.72 -1.04 -0.96 -1.96 -0.96 c-1.12 0 -1.92 0.84 -2.4 1.28 c-0.6 0.68 -0.6 1.96 -0.6 2.52 l0 7.92 c0 1.16 0.24 1.56 0.68 1.56 l0.72 0 c0.36 0 0.44 0.08 0.44 0.36 l0 0.72 c0 0.32 -0.08 0.44 -0.28 0.44 c-0.28 0 -1.32 -0.12 -3.76 -0.12 c-2.96 0 -4.32 0.12 -4.56 0.12 c-0.2 0 -0.28 -0.12 -0.28 -0.4 l0 -0.72 c0 -0.32 0.04 -0.4 0.4 -0.4 l0.56 0 c0.56 0 0.96 -0.52 0.96 -2.84 l0 -5.92 c0 -2.76 -0.4 -3.68 -0.88 -4.12 c-0.36 -0.36 -1 -0.48 -1.88 -0.48 c-0.8 0 -1.72 0.56 -2.2 1.24 c-0.52 0.8 -0.68 1.72 -0.64 3.24 l0 6.44 c0 2.04 0.4 2.44 0.84 2.44 l0.36 0 c0.36 0 0.4 0.08 0.4 0.36 l0 0.72 c0 0.28 -0.04 0.44 -0.32 0.44 c-0.36 0 -1.44 -0.12 -4.28 -0.12 c-2.68 0 -3.96 0.12 -4.28 0.12 c-0.24 0 -0.32 -0.08 -0.32 -0.36 l0 -0.8 c0 -0.32 0.04 -0.36 0.48 -0.36 l1.12 0 c0.4 0 0.72 -0.44 0.76 -1 c0.04 -0.68 0.04 -1.68 0.04 -2.72 l0 -5.04 c0 -1.76 -0.28 -2.4 -1.28 -3 l-0.8 -0.48 c-0.2 -0.12 -0.28 -0.2 -0.28 -0.32 l0 -0.48 c0 -0.12 0.08 -0.28 0.24 -0.36 z"></path></g>
			</g>
		</svg>
	